# xmcd CD database file
#
# Track frame offsets:
#	150
#	21655
#	38664
#	72933
#	90171
#	112372
#	132860
#	157031
#
# Disc length: 2406 seconds
#
# Revision: 0
# Processed by: cddbd v1.4PL0 Copyright (c) Steve Scherf et al.
# Submitted via: CDex 1.51
#
DISCID=6a096408
DTITLE=J.C. Patrilla Jazz Quartet - Dec. 1999
DYEAR=1999
DGENRE=Jazz
TTITLE0=J.C. Patrilla
TTITLE1=Genesis Blues
TTITLE2=Once in Two Blue Moons
TTITLE3=Something About Your Mother
TTITLE4=Hey Joey
TTITLE5=Into the Stinch
TTITLE6=At The Last Minute
TTITLE7=Keepin' Out of Mischeif Now
EXTD=YEAR: 1999
EXTT0=
EXTT1=
EXTT2=
EXTT3=
EXTT4=
EXTT5=
EXTT6=
EXTT7=
PLAYORDER=
